<?xml version="1.0" encoding="iso-8859-1"?>
<!-- Generator: Adobe Illustrator 19.0.0, SVG Export Plug-In . SVG Version: 6.00 Build 0)  -->
<svg version="1.1" id="Layer_1" xmlns="http://www.w3.org/2000/svg" xmlns:xlink="http://www.w3.org/1999/xlink" x="0px" y="0px"
	 viewBox="0 0 320.968 320.968" style="enable-background:new 0 0 320.968 320.968;" xml:space="preserve">
<g>
	<g>
		<g>
			<path d="M270.588,268.396c-0.596-11.232-18.368-21.896-36.448-29.892c30.404-25.124,37.612-65.848,34.096-103.824
				c-2.584-27.94-9.172-63.012-26.344-86.82C226.812,23.24,198,0,162.924,0c-34.056,0-63.236,17.488-75.3,42.188
				c-18.4,30.012-27.984,64.26-30.052,99.392c-2.056,34.928-0.176,73.964,27.572,98.672c-31.924,13.792-34.616,25.36-34.76,28.144
				c-1.06,20.104-2.648,49.208-2.648,49.208l3.18,3.364h219.136l3.18-3.364C273.232,317.604,271.644,288.504,270.588,268.396z
				 M93.264,45.144c1.108-1.796,2.14-3.632,3.312-5.4c0.312-0.476,0.452-0.94,0.496-1.392c12.696-19.032,37.452-31.98,65.852-31.98
				c30.408,0,55.8,18.924,70.512,40.168c0.088,0.536,0.272,1.068,0.688,1.568c0.848,1.024,1.644,2.1,2.416,3.196
				c1.912,3.14,3.604,6.308,5.024,9.444c0.256,0.56,0.68,0.964,1.156,1.284c2.964,6.2,5.324,12.756,7.464,18.98
				c5.68,16.524,9.62,33.768,11.436,51.152c3.916,37.488-2,79.552-34.072,103.544c-13.7-5.596-26.364-9.476-30.456-10.684
				c-3.284-7.416-5.148-14.988-5.372-22.596c-0.024-0.848-0.384-1.64-0.936-2.216c23.392-16.092,45.576-48.792,45.576-88.36
				c0-2.2,0.048-3.764,0.084-5.036c0.096-3.232,0.132-4.872-0.732-9.732c0.56-0.944,1.212-1.856,1.72-2.816
				c0.82-1.552,0.224-3.48-1.332-4.3c-1.552-0.82-3.476-0.224-4.3,1.332c-4.056,7.7-10.156,14.768-17.708,20.552
				c-7.348-4.684-13.492-10.916-19.964-17.488c-6.272-6.364-12.76-12.952-20.512-18.072c-23.24-15.352-60.6-13.844-84.152,2.72
				c-0.948-3.9-1.428-7.792-1.428-11.616C88.036,59.536,89.932,52.052,93.264,45.144z M200.412,242.728
				c1.22,1.392,2.444,2.776,3.5,4.224c1.9,2.604,3.744,6.34,1.712,9.356c-1.764,2.632-6.476,4.584-11.196,4.648h-0.056
				c-3.264,0-12.852-3.604-18.156-8.844c-2.324-2.292-3.5-4.54-3.5-6.672c0-0.048-0.024-0.084-0.028-0.132
				c8.864-1.348,16.784-4.632,22.556-9.316C196.648,238.412,198.548,240.608,200.412,242.728z M95.472,82.712
				c21.604-13.752,54.14-14.648,74.64-1.108c7.196,4.756,13.444,11.1,19.488,17.232c6.972,7.076,14.184,14.392,23.06,19.596
				l3.472-0.16c5.356-3.856,10.012-8.356,13.996-13.22c-0.008,0.484-0.024,0.988-0.04,1.58c-0.036,1.32-0.088,2.94-0.088,5.224
				c0,51.212-41.372,92.776-68.368,92.776c-5.844,0-14.056-3.376-22.524-9.272c-22.82-15.876-45.848-47.856-45.848-83.5
				c0-10.912,0-16.924,2.588-26.664C96.084,84.308,95.912,83.428,95.472,82.712z M64.192,137.796
				c1.832-24.548,7.576-48.472,17.5-70.716c0,0.108-0.02,0.212-0.02,0.32c0,5.932,1.012,11.98,3.012,17.976l4.268,1.22
				c-2.04,8.864-2.056,15.296-2.056,25.256c0,37.948,24.396,71.904,48.572,88.728c0.34,0.24,0.676,0.444,1.016,0.672
				c-0.668,0.544-1.116,1.324-1.164,2.256c-0.376,7.38-2.348,14.744-5.696,21.976c-15.608,4.108-28.128,8.216-38.2,12.184
				c-0.164-0.308-0.356-0.612-0.68-0.888C62.336,212.508,61.604,172.464,64.192,137.796z M131.416,236.244
				c5.864,4.968,13.568,8.292,22.62,9.768c-0.192,1.96-1.304,4.008-3.42,6.096c-5.304,5.24-14.892,8.844-18.152,8.844h-0.056
				c-4.72-0.064-9.432-2.016-11.2-4.648c-2.028-3.012-0.188-6.752,1.716-9.356c1.052-1.444,2.276-2.828,3.5-4.224
				C128.22,240.684,130.028,238.556,131.416,236.244z M155.788,314.592H54.272c0.448-8.228,1.624-29.884,2.468-45.864
				c0.656-12.432,42.688-28.34,71.336-36.232l0.084,0.668c0.004,0.004,0.004,0.004,0.004,0.004c-0.1,0.12-0.224,0.216-0.304,0.36
				c-1.188,2.116-2.948,4.12-4.812,6.24c-1.312,1.492-2.62,2.988-3.752,4.536c-3.884,5.32-4.532,10.476-1.816,14.516
				c2.612,3.88,8.588,6.548,14.872,6.628h0.088c4.44,0,15.116-4,21.328-10.14c0.772-0.76,1.436-1.528,2.02-2.304V314.592z
				 M157.508,240.124c-0.024-0.004-0.044-0.02-0.068-0.024c-9.72-1.16-17.46-4.408-23.04-9.668
				c4.276-8.492,6.676-17.216,7.212-25.984c7.396,4.232,14.352,6.544,20.016,6.544c7.272,0,15.516-2.612,23.812-7.392
				c0.404,8.972,2.696,17.888,6.92,26.532c-5.24,4.764-13.212,8.056-22.264,9.132c-0.628,0.076-1.148,0.368-1.6,0.74
				c-0.76,0.076-1.464,0.496-1.816,1.232l-6.4,13.38v-12.412C160.284,240.528,158.776,239.856,157.508,240.124z M160.284,314.588
				v-49.556l8.232-17.212c0.588,2.552,2.1,5.064,4.552,7.484c6.216,6.136,16.888,10.14,21.328,10.14h0.092
				c6.28-0.08,12.256-2.744,14.872-6.628c2.716-4.04,2.072-9.196-1.816-14.516c-1.132-1.548-2.44-3.044-3.756-4.536
				c-1.864-2.12-3.624-4.124-4.812-6.24c-0.12-0.212-0.288-0.376-0.46-0.536c0.024-0.024,0.052-0.048,0.076-0.072l0.1-0.76
				c26.592,8.18,64.884,24.208,65.536,36.568c0.84,15.984,2.016,37.64,2.46,45.864H160.284z"/>
			<path d="M228.936,85.436c0.412,2.848,4.74,1.64,4.332-1.192c-2.528-17.528-10.428-33.168-22.912-45.704
				c-2.04-2.052-5.22,1.124-3.176,3.176C219.176,53.76,226.512,68.628,228.936,85.436z"/>
			<path d="M232.304,214.588c-2.816,4.02-5.78,7.916-8.916,11.696c-1.832,2.208,1.332,5.404,3.18,3.176
				c3.376-4.072,6.58-8.272,9.616-12.604C237.844,214.484,233.952,212.236,232.304,214.588z"/>
			<path d="M240.752,211.228c6.3-7.648,10.568-16.364,12.556-26.084c0.576-2.824-3.752-4.028-4.332-1.192
				c-1.832,8.944-5.588,17.04-11.4,24.1C235.752,210.264,238.912,213.46,240.752,211.228z"/>
		</g>
	</g>
</g>
<g>
</g>
<g>
</g>
<g>
</g>
<g>
</g>
<g>
</g>
<g>
</g>
<g>
</g>
<g>
</g>
<g>
</g>
<g>
</g>
<g>
</g>
<g>
</g>
<g>
</g>
<g>
</g>
<g>
</g>
</svg>
