<?xml version="1.0" encoding="utf-8"?>

<!DOCTYPE svg PUBLIC "-//W3C//DTD SVG 1.1//EN" "http://www.w3.org/Graphics/SVG/1.1/DTD/svg11.dtd">
<svg version="1.1" id="Layer_1" xmlns="http://www.w3.org/2000/svg" xmlns:xlink="http://www.w3.org/1999/xlink"
	 viewBox="50 30 50 50" xml:space="preserve">
<g>
	<path d="M62.994,41.041c-4.342,0-7.978,3.634-7.978,7.977c0,4.341,3.028,7.269,6.865,7.269c0.809,0,1.617-0.101,2.02-0.303
		c-0.899,3.602-4.307,7.642-7.513,9.387c-0.007,0.003-0.012,0.008-0.018,0.011c-0.024,0.013-0.048,0.031-0.071,0.044l0.003,0.002
		c-0.355,0.19-0.605,0.552-0.605,0.983c0,0.388,0.208,0.713,0.505,0.916l-0.025,0.024l4.196,2.65l0.013-0.011
		c0.189,0.143,0.413,0.242,0.668,0.242c0.184,0,0.35-0.054,0.504-0.132l0.021,0.019c6.26-4.443,10.401-11.206,10.401-18.78
		C71.979,44.776,67.738,41.041,62.994,41.041z"/>
	<path d="M83.541,41.041c-4.342,0-7.978,3.634-7.978,7.977c0,4.341,3.028,7.269,6.865,7.269c0.809,0,1.617-0.101,2.02-0.303
		c-0.899,3.602-4.307,7.642-7.513,9.387c-0.007,0.003-0.012,0.008-0.018,0.011c-0.024,0.013-0.048,0.031-0.071,0.044l0.003,0.002
		c-0.355,0.19-0.605,0.552-0.605,0.983c0,0.388,0.208,0.713,0.505,0.916l-0.025,0.024l4.196,2.65l0.013-0.011
		c0.189,0.143,0.413,0.242,0.668,0.242c0.184,0,0.35-0.054,0.504-0.132l0.021,0.019c6.26-4.443,10.401-11.206,10.401-18.78
		C92.526,44.776,88.285,41.041,83.541,41.041z"/>
</g>
</svg>
