<?xml version="1.0" encoding="utf-8"?>

<!DOCTYPE svg PUBLIC "-//W3C//DTD SVG 1.1//EN" "http://www.w3.org/Graphics/SVG/1.1/DTD/svg11.dtd">
<svg version="1.1" id="Layer_1" xmlns="http://www.w3.org/2000/svg" xmlns:xlink="http://www.w3.org/1999/xlink"
	 viewBox="0 20 50 50" xml:space="preserve">
<g>
	<path d="M17.572,43.713c-0.809,0-1.617,0.101-2.02,0.303c0.899-3.602,4.307-7.642,7.513-9.387c0.007-0.003,0.012-0.008,0.018-0.011
		c0.024-0.013,0.048-0.031,0.071-0.044l-0.003-0.002c0.355-0.19,0.605-0.552,0.605-0.983c0-0.388-0.208-0.713-0.505-0.916
		l0.025-0.024l-4.196-2.65l-0.013,0.011c-0.189-0.143-0.413-0.242-0.668-0.242c-0.184,0-0.35,0.054-0.504,0.132l-0.021-0.019
		c-6.26,4.442-10.401,11.206-10.401,18.78c0,6.562,4.241,10.297,8.985,10.297c4.342,0,7.978-3.634,7.978-7.977
		C24.437,46.641,21.409,43.713,17.572,43.713z"/>
	<path d="M38.119,43.713c-0.809,0-1.617,0.101-2.02,0.303c0.899-3.602,4.307-7.642,7.513-9.387c0.007-0.003,0.012-0.008,0.018-0.011
		c0.024-0.013,0.048-0.031,0.071-0.044l-0.003-0.002c0.355-0.19,0.605-0.552,0.605-0.983c0-0.388-0.208-0.713-0.505-0.916
		l0.025-0.024l-4.196-2.65l-0.013,0.011c-0.189-0.143-0.413-0.242-0.668-0.242c-0.184,0-0.35,0.054-0.504,0.132l-0.021-0.019
		c-6.26,4.442-10.401,11.206-10.401,18.78c0,6.562,4.241,10.297,8.985,10.297c4.342,0,7.978-3.634,7.978-7.977
		C44.984,46.641,41.956,43.713,38.119,43.713z"/>
</g>
</svg>
