<?xml version="1.0" encoding="iso-8859-1"?>
<!-- Generator: Adobe Illustrator 19.0.0, SVG Export Plug-In . SVG Version: 6.00 Build 0)  -->
<svg version="1.1" id="Layer_1" xmlns="http://www.w3.org/2000/svg" xmlns:xlink="http://www.w3.org/1999/xlink" x="0px" y="0px"
	 viewBox="0 0 344.444 344.444" style="enable-background:new 0 0 344.444 344.444;" xml:space="preserve">
<g>
	<g>
		<path d="M272.222,228.244V77.778c0-19.672-14.678-35.978-33.661-38.539c-2.106-16.656-14.194-30.539-30.833-34.7
			C195.678,1.528,183.267,0,170.856,0h-4.889c-7.178,0-14.417,0.517-21.506,1.528c-41.183,5.883-72.239,41.694-72.239,83.294
			v143.417c-23.572,12.133-38.889,36.439-38.889,64.122v52.083h277.778v-52.078C311.111,264.683,295.794,240.378,272.222,228.244z
			 M146.039,12.528c6.567-0.939,13.272-1.417,19.928-1.417h4.889c11.506,0,23.006,1.417,34.183,4.206
			c13.389,3.35,22.739,15.328,22.739,29.128V50h5.556c15.317,0,27.778,12.461,27.778,27.778v145.878
			c-2.139-0.689-4.322-1.294-6.556-1.794l-43.444-9.65v-13.728c16.789-12.117,27.778-31.794,27.778-54.039V72.222h-11.111V75
			l-4.828,3.622c-8.828,6.622-19.767,10.267-30.806,10.267H151.35c-12.533,0-24.5,3.667-34.683,10.494v-4.939h-11.111v50
			c0,22.244,10.989,41.922,27.778,54.039v13.728l-43.444,9.65c-2.233,0.494-4.417,1.106-6.556,1.794
			c-0.001,0.001-0.001-138.833-0.001-138.833C83.333,48.711,110.289,17.633,146.039,12.528z M138.072,233.289
			c5.511,18.361,11.828,36.617,18.756,54.578l-21.883-21.883L103,275.111c6.994-18.617,18.283-35.178,33.039-48.605L138.072,233.289
			z M116.665,144.444v-30.883h0.002C126.161,104.833,138.372,100,151.35,100h40.794c12.678,0,25.228-4,35.633-11.228v55.672
			c0,30.633-24.922,55.556-55.556,55.556C141.587,200,116.665,175.078,116.665,144.444z M148.722,230.1l-4.278-14.25v-10.878
			c8.467,3.9,17.856,6.139,27.778,6.139s19.311-2.239,27.778-6.139v10.878l-4.278,14.25c-6.744,22.478-14.633,44.822-23.5,66.6
			C163.35,274.922,155.461,252.578,148.722,230.1z M206.367,233.289l2.033-6.783c14.756,13.422,26.05,29.983,33.039,48.6
			l-31.944-9.128l-21.883,21.883C194.544,269.906,200.861,251.656,206.367,233.289z M255.556,333.333v-22.222h-11.111v22.222H100
			v-22.222H88.889v22.222H44.444v-40.967c0-28.861,19.678-53.394,47.856-59.65l28.011-6.228
			c-14.55,15.689-25.256,34.5-31.206,55.322l-2.75,9.611l45.361-12.961l35.822,35.822l4.683,10.928l4.683-10.928l35.822-35.822
			l45.361,12.961l-2.75-9.611c-5.95-20.822-16.656-39.633-31.206-55.322l28.011,6.228c28.178,6.256,47.856,30.789,47.856,59.65
			v40.967H255.556z"/>
	</g>
</g>
<g>
</g>
<g>
</g>
<g>
</g>
<g>
</g>
<g>
</g>
<g>
</g>
<g>
</g>
<g>
</g>
<g>
</g>
<g>
</g>
<g>
</g>
<g>
</g>
<g>
</g>
<g>
</g>
<g>
</g>
</svg>
